{
  "accessors": [
    {
      "bufferView": 2,
      "componentType": 5126,
      "count": 369,
      "max": [
        323.3936767578125,
        335.7268371582031,
        58.95981216430664
      ],
      "min": [
        -282.259521484375,
        -267.5774841308594,
        -397.5498962402344
      ],
      "type": "VEC3"
    },
    {
      "bufferView": 2,
      "byteOffset": 4428,
      "componentType": 5126,
      "count": 369,
      "max": [
        1.0,
        0.999999463558197,
        0.9999988675117493
      ],
      "min": [
        -0.9999972581863403,
        -1.0,
        -1.0
      ],
      "type": "VEC3"
    },
    {
      "bufferView": 1,
      "componentType": 5126,
      "count": 369,
      "max": [
        0.8961099982261658,
        1.0000109672546387
      ],
      "min": [
        0.0,
        0.006360999774187803
      ],
      "type": "VEC2"
    },
    {
      "bufferView": 0,
      "componentType": 5125,
      "count": 1746,
      "type": "SCALAR"
    },
    {
      "bufferView": 2,
      "byteOffset": 8856,
      "componentType": 5126,
      "count": 16,
      "max": [
        229.40066528320313,
        149.0322265625,
        287.5746154785156
      ],
      "min": [
        205.06036376953125,
        124.69193267822266,
        264.7788391113281
      ],
      "type": "VEC3"
    },
    {
      "bufferView": 2,
      "byteOffset": 9048,
      "componentType": 5126,
      "count": 16,
      "max": [
        0.7435596585273743,
        0.7435601949691772,
        0.0
      ],
      "min": [
        -0.7435606122016907,
        -0.7435601949691772,
        0.0
      ],
      "type": "VEC3"
    },
    {
      "bufferView": 1,
      "byteOffset": 2952,
      "componentType": 5126,
      "count": 16,
      "max": [
        0.3718090057373047,
        0.9679290056228638
      ],
      "min": [
        0.3072099983692169,
        0.9199979901313782
      ],
      "type": "VEC2"
    },
    {
      "bufferView": 0,
      "byteOffset": 6984,
      "componentType": 5125,
      "count": 24,
      "type": "SCALAR"
    },
    {
      "bufferView": 2,
      "byteOffset": 9240,
      "componentType": 5126,
      "count": 21,
      "max": [
        -69.08619689941406,
        -87.63190460205078,
        418.4809875488281
      ],
      "min": [
        -97.95464324951172,
        -116.50038146972656,
        417.8005676269531
      ],
      "type": "VEC3"
    },
    {
      "bufferView": 2,
      "byteOffset": 9492,
      "componentType": 5126,
      "count": 21,
      "max": [
        0.0741809606552124,
        0.05123899132013321,
        1.0
      ],
      "min": [
        -0.076044961810112,
        -0.08033400028944016,
        0.996741533279419
      ],
      "type": "VEC3"
    },
    {
      "bufferView": 1,
      "byteOffset": 3080,
      "componentType": 5126,
      "count": 21,
      "max": [
        0.0949610024690628,
        0.3014039993286133
      ],
      "min": [
        0.01781100034713745,
        0.22422699630260468
      ],
      "type": "VEC2"
    },
    {
      "bufferView": 0,
      "byteOffset": 7080,
      "componentType": 5125,
      "count": 60,
      "type": "SCALAR"
    },
    {
      "bufferView": 2,
      "byteOffset": 9744,
      "componentType": 5126,
      "count": 32,
      "max": [
        -2.591063976287842,
        -16.383865356445313,
        543.1372680664063
      ],
      "min": [
        -146.58245849609375,
        -96.12924194335938,
        484.9490051269531
      ],
      "type": "VEC3"
    },
    {
      "bufferView": 2,
      "byteOffset": 10128,
      "componentType": 5126,
      "count": 32,
      "max": [
        1.0,
        -0.0,
        0.9508435130119324
      ],
      "min": [
        -1.0,
        -1.0,
        -0.00011499998799990863
      ],
      "type": "VEC3"
    },
    {
      "bufferView": 1,
      "byteOffset": 3248,
      "componentType": 5126,
      "count": 32,
      "max": [
        0.670619010925293,
        0.30414101481437683
      ],
      "min": [
        0.0,
        0.0
      ],
      "type": "VEC2"
    },
    {
      "bufferView": 0,
      "byteOffset": 7320,
      "componentType": 5125,
      "count": 126,
      "type": "SCALAR"
    },
    {
      "bufferView": 2,
      "byteOffset": 10512,
      "componentType": 5126,
      "count": 2050,
      "max": [
        251.23793029785156,
        219.96734619140625,
        612.007080078125
      ],
      "min": [
        -192.75146484375,
        -198.56365966796875,
        163.53529357910156
      ],
      "type": "VEC3"
    },
    {
      "bufferView": 2,
      "byteOffset": 35112,
      "componentType": 5126,
      "count": 2050,
      "max": [
        1.0,
        1.0,
        1.0
      ],
      "min": [
        -1.0,
        -1.0,
        -1.0
      ],
      "type": "VEC3"
    },
    {
      "bufferView": 1,
      "byteOffset": 3504,
      "componentType": 5126,
      "count": 2050,
      "max": [
        0.9878600239753723,
        0.9984099864959717
      ],
      "min": [
        0.0019209999591112137,
        0.0020379999186843634
      ],
      "type": "VEC2"
    },
    {
      "bufferView": 0,
      "byteOffset": 7824,
      "componentType": 5125,
      "count": 3768,
      "type": "SCALAR"
    },
    {
      "bufferView": 2,
      "byteOffset": 59712,
      "componentType": 5126,
      "count": 1022,
      "max": [
        49.67804718017578,
        198.61830139160156,
        636.1741943359375
      ],
      "min": [
        -198.81005859375,
        -35.922943115234375,
        180.4462890625
      ],
      "type": "VEC3"
    },
    {
      "bufferView": 2,
      "byteOffset": 71976,
      "componentType": 5126,
      "count": 1022,
      "max": [
        1.0,
        1.0,
        1.0
      ],
      "min": [
        -1.0,
        -1.0,
        -1.0
      ],
      "type": "VEC3"
    },
    {
      "bufferView": 1,
      "byteOffset": 19904,
      "componentType": 5126,
      "count": 1022,
      "max": [
        0.9980080127716064,
        0.9918079972267151
      ],
      "min": [
        0.0019920000340789557,
        0.001888000057078898
      ],
      "type": "VEC2"
    },
    {
      "bufferView": 0,
      "byteOffset": 22896,
      "componentType": 5125,
      "count": 1728,
      "type": "SCALAR"
    },
    {
      "bufferView": 2,
      "byteOffset": 84240,
      "componentType": 5126,
      "count": 16,
      "max": [
        -5.535460948944092,
        -17.46246337890625,
        257.02142333984375
      ],
      "min": [
        -114.12387084960938,
        -85.36282348632813,
        180.44635009765625
      ],
      "type": "VEC3"
    },
    {
      "bufferView": 2,
      "byteOffset": 84432,
      "componentType": 5126,
      "count": 16,
      "max": [
        0.0,
        1.0,
        1.0
      ],
      "min": [
        0.0,
        -0.26545506715774536,
        -1.0
      ],
      "type": "VEC3"
    },
    {
      "bufferView": 1,
      "byteOffset": 28080,
      "componentType": 5126,
      "count": 16,
      "max": [
        0.0,
        0.0
      ],
      "min": [
        0.0,
        0.0
      ],
      "type": "VEC2"
    },
    {
      "bufferView": 0,
      "byteOffset": 29808,
      "componentType": 5125,
      "count": 30,
      "type": "SCALAR"
    },
    {
      "bufferView": 2,
      "byteOffset": 84624,
      "componentType": 5126,
      "count": 2900,
      "max": [
        238.40798950195313,
        227.2105712890625,
        795.2180786132813
      ],
      "min": [
        -193.80264282226563,
        -121.46517181396484,
        180.44635009765625
      ],
      "type": "VEC3"
    },
    {
      "bufferView": 2,
      "byteOffset": 119424,
      "componentType": 5126,
      "count": 2900,
      "max": [
        1.0,
        1.0,
        1.0
      ],
      "min": [
        -1.0,
        -1.0,
        -1.0
      ],
      "type": "VEC3"
    },
    {
      "bufferView": 1,
      "byteOffset": 28208,
      "componentType": 5126,
      "count": 2900,
      "max": [
        0.9935740232467651,
        0.9919660091400146
      ],
      "min": [
        0.009577999822795391,
        0.011096999980509281
      ],
      "type": "VEC2"
    },
    {
      "bufferView": 0,
      "byteOffset": 29928,
      "componentType": 5125,
      "count": 9282,
      "type": "SCALAR"
    },
    {
      "bufferView": 2,
      "byteOffset": 154224,
      "componentType": 5126,
      "count": 2859,
      "max": [
        37.76580810546875,
        193.20204162597656,
        774.9159545898438
      ],
      "min": [
        -242.67446899414063,
        -234.49349975585938,
        180.44631958007813
      ],
      "type": "VEC3"
    },
    {
      "bufferView": 2,
      "byteOffset": 188532,
      "componentType": 5126,
      "count": 2859,
      "max": [
        1.0,
        1.0,
        1.0
      ],
      "min": [
        -1.0,
        -1.0,
        -1.0
      ],
      "type": "VEC3"
    },
    {
      "bufferView": 3,
      "componentType": 5126,
      "count": 2859,
      "max": [
        1.0,
        0.9988549947738647,
        1.0,
        1.0
      ],
      "min": [
        -1.0,
        -0.9996044635772705,
        -1.0,
        -1.0
      ],
      "type": "VEC4"
    },
    {
      "bufferView": 1,
      "byteOffset": 51408,
      "componentType": 5126,
      "count": 2859,
      "max": [
        1.0,
        0.9926080107688904
      ],
      "min": [
        -9.999999974752427e-07,
        0.0
      ],
      "type": "VEC2"
    },
    {
      "bufferView": 0,
      "byteOffset": 67056,
      "componentType": 5125,
      "count": 10407,
      "type": "SCALAR"
    },
    {
      "bufferView": 2,
      "byteOffset": 222840,
      "componentType": 5126,
      "count": 861,
      "max": [
        298.040771484375,
        311.6658020019531,
        601.69189453125
      ],
      "min": [
        -240.26116943359375,
        -253.81109619140625,
        -364.9786682128906
      ],
      "type": "VEC3"
    },
    {
      "bufferView": 2,
      "byteOffset": 233172,
      "componentType": 5126,
      "count": 861,
      "max": [
        1.0,
        1.0,
        1.0
      ],
      "min": [
        -1.0,
        -1.0,
        -0.7399380207061768
      ],
      "type": "VEC3"
    },
    {
      "bufferView": 1,
      "byteOffset": 74280,
      "componentType": 5126,
      "count": 861,
      "max": [
        1.0,
        0.9553409814834595
      ],
      "min": [
        0.0,
        0.0
      ],
      "type": "VEC2"
    },
    {
      "bufferView": 0,
      "byteOffset": 108684,
      "componentType": 5125,
      "count": 3384,
      "type": "SCALAR"
    }
  ],
  "asset": {
    "extras": {
      "author": "IvenPohle (https://sketchfab.com/IvenPohle)",
      "license": "CC-BY-NC-4.0 (http://creativecommons.org/licenses/by-nc/4.0/)",
      "source": "https://sketchfab.com/3d-models/stephans-sketchbook-strange-water-home-2a268c93f6274814befcc5de791884f5",
      "title": "Stephan's Sketchbook Strange Water Home"
    },
    "generator": "Sketchfab-12.67.0",
    "version": "2.0"
  },
  "bufferViews": [
    {
      "buffer": 0,
      "byteLength": 122220,
      "name": "floatBufferViews",
      "target": 34963
    },
    {
      "buffer": 0,
      "byteLength": 81168,
      "byteOffset": 122220,
      "byteStride": 8,
      "name": "floatBufferViews",
      "target": 34962
    },
    {
      "buffer": 0,
      "byteLength": 243504,
      "byteOffset": 203388,
      "byteStride": 12,
      "name": "floatBufferViews",
      "target": 34962
    },
    {
      "buffer": 0,
      "byteLength": 45744,
      "byteOffset": 446892,
      "byteStride": 16,
      "name": "floatBufferViews",
      "target": 34962
    }
  ],
  "buffers": [
    {
      "byteLength": 492636,
      "uri": "scene.bin"
    }
  ],
  "images": [
    {
      "uri": "textures/TheHouse_WaterinitialShadingGroup_baseColor.png"
    },
    {
      "uri": "textures/blinn1SG_baseColor.png"
    },
    {
      "uri": "textures/blinn2SG_baseColor.png"
    },
    {
      "uri": "textures/blinn3SG_baseColor.png"
    },
    {
      "uri": "textures/blinn4SG_baseColor.png"
    },
    {
      "uri": "textures/blinn4SG_normal.png"
    },
    {
      "uri": "textures/phong3SG_baseColor.png"
    }
  ],
  "materials": [
    {
      "alphaMode": "BLEND",
      "doubleSided": true,
      "name": "TheHouse_WaterinitialShadingGroup",
      "pbrMetallicRoughness": {
        "baseColorTexture": {
          "index": 0
        },
        "metallicFactor": 0.0
      }
    },
    {
      "doubleSided": true,
      "name": "blinn1SG",
      "pbrMetallicRoughness": {
        "baseColorTexture": {
          "index": 1
        },
        "metallicFactor": 0.0
      }
    },
    {
      "doubleSided": true,
      "name": "blinn2SG",
      "pbrMetallicRoughness": {
        "baseColorTexture": {
          "index": 2
        },
        "metallicFactor": 0.0
      }
    },
    {
      "doubleSided": true,
      "name": "blinn3SG",
      "pbrMetallicRoughness": {
        "baseColorTexture": {
          "index": 3
        },
        "metallicFactor": 0.0
      }
    },
    {
      "doubleSided": true,
      "name": "blinn4SG",
      "normalTexture": {
        "index": 5
      },
      "pbrMetallicRoughness": {
        "baseColorTexture": {
          "index": 4
        },
        "metallicFactor": 0.0
      }
    },
    {
      "alphaMode": "BLEND",
      "doubleSided": true,
      "name": "blinn5SG",
      "pbrMetallicRoughness": {
        "baseColorFactor": [
          1.0,
          1.0,
          1.0,
          0.2943978658536585
        ],
        "baseColorTexture": {
          "index": 4
        },
        "metallicFactor": 0.0,
        "roughnessFactor": 0.32755335365853655
      }
    },
    {
      "alphaMode": "BLEND",
      "doubleSided": true,
      "name": "blinn6SG",
      "pbrMetallicRoughness": {
        "baseColorFactor": [
          0.03185484888755173,
          0.33638951952947194,
          0.26148562869300396,
          0.7578125
        ],
        "metallicFactor": 0.0,
        "roughnessFactor": 0.3126905487804878
      }
    },
    {
      "doubleSided": true,
      "name": "blinn7SG",
      "pbrMetallicRoughness": {
        "baseColorTexture": {
          "index": 4
        },
        "metallicFactor": 0.0
      }
    },
    {
      "doubleSided": true,
      "name": "phong3SG",
      "pbrMetallicRoughness": {
        "baseColorTexture": {
          "index": 6
        },
        "metallicFactor": 0.0
      }
    }
  ],
  "meshes": [
    {
      "name": "Object_0",
      "primitives": [
        {
          "attributes": {
            "NORMAL": 1,
            "POSITION": 0,
            "TEXCOORD_0": 2
          },
          "indices": 3,
          "material": 0,
          "mode": 4
        }
      ]
    },
    {
      "name": "Object_1",
      "primitives": [
        {
          "attributes": {
            "NORMAL": 5,
            "POSITION": 4,
            "TEXCOORD_0": 6
          },
          "indices": 7,
          "material": 5,
          "mode": 4
        }
      ]
    },
    {
      "name": "Object_2",
      "primitives": [
        {
          "attributes": {
            "NORMAL": 9,
            "POSITION": 8,
            "TEXCOORD_0": 10
          },
          "indices": 11,
          "material": 6,
          "mode": 4
        }
      ]
    },
    {
      "name": "Object_3",
      "primitives": [
        {
          "attributes": {
            "NORMAL": 13,
            "POSITION": 12,
            "TEXCOORD_0": 14
          },
          "indices": 15,
          "material": 7,
          "mode": 4
        }
      ]
    },
    {
      "name": "Object_4",
      "primitives": [
        {
          "attributes": {
            "NORMAL": 17,
            "POSITION": 16,
            "TEXCOORD_0": 18
          },
          "indices": 19,
          "material": 1,
          "mode": 4
        }
      ]
    },
    {
      "name": "Object_5",
      "primitives": [
        {
          "attributes": {
            "NORMAL": 21,
            "POSITION": 20,
            "TEXCOORD_0": 22
          },
          "indices": 23,
          "material": 2,
          "mode": 4
        }
      ]
    },
    {
      "name": "Object_6",
      "primitives": [
        {
          "attributes": {
            "NORMAL": 25,
            "POSITION": 24,
            "TEXCOORD_0": 26
          },
          "indices": 27,
          "material": 3,
          "mode": 4
        }
      ]
    },
    {
      "name": "Object_7",
      "primitives": [
        {
          "attributes": {
            "NORMAL": 29,
            "POSITION": 28,
            "TEXCOORD_0": 30
          },
          "indices": 31,
          "material": 3,
          "mode": 4
        }
      ]
    },
    {
      "name": "Object_8",
      "primitives": [
        {
          "attributes": {
            "NORMAL": 33,
            "POSITION": 32,
            "TANGENT": 34,
            "TEXCOORD_0": 35
          },
          "indices": 36,
          "material": 4,
          "mode": 4
        }
      ]
    },
    {
      "name": "Object_9",
      "primitives": [
        {
          "attributes": {
            "NORMAL": 38,
            "POSITION": 37,
            "TEXCOORD_0": 39
          },
          "indices": 40,
          "material": 8,
          "mode": 4
        }
      ]
    }
  ],
  "nodes": [
    {
      "children": [
        1
      ],
      "matrix": [
        1.0,
        0.0,
        0.0,
        0.0,
        0.0,
        2.220446049250313e-16,
        -1.0,
        0.0,
        0.0,
        1.0,
        2.220446049250313e-16,
        0.0,
        0.0,
        0.0,
        0.0,
        1.0
      ],
      "name": "Sketchfab_model"
    },
    {
      "children": [
        2,
        3,
        4,
        5,
        6,
        7,
        8,
        9,
        10,
        11
      ],
      "name": "Waterhouse.obj.cleaner.materialmerger.gles"
    },
    {
      "mesh": 0,
      "name": "Object_2"
    },
    {
      "mesh": 1,
      "name": "Object_3"
    },
    {
      "mesh": 2,
      "name": "Object_4"
    },
    {
      "mesh": 3,
      "name": "Object_5"
    },
    {
      "mesh": 4,
      "name": "Object_6"
    },
    {
      "mesh": 5,
      "name": "Object_7"
    },
    {
      "mesh": 6,
      "name": "Object_8"
    },
    {
      "mesh": 7,
      "name": "Object_9"
    },
    {
      "mesh": 8,
      "name": "Object_10"
    },
    {
      "mesh": 9,
      "name": "Object_11"
    }
  ],
  "samplers": [
    {
      "magFilter": 9729,
      "minFilter": 9987,
      "wrapS": 10497,
      "wrapT": 10497
    }
  ],
  "scene": 0,
  "scenes": [
    {
      "name": "Sketchfab_Scene",
      "nodes": [
        0
      ]
    }
  ],
  "textures": [
    {
      "sampler": 0,
      "source": 0
    },
    {
      "sampler": 0,
      "source": 1
    },
    {
      "sampler": 0,
      "source": 2
    },
    {
      "sampler": 0,
      "source": 3
    },
    {
      "sampler": 0,
      "source": 4
    },
    {
      "sampler": 0,
      "source": 5
    },
    {
      "sampler": 0,
      "source": 6
    }
  ]
}
