<svg xmlns="http://www.w3.org/2000/svg" version="1.1" xmlns:xlink="http://www.w3.org/1999/xlink" xmlns:svgjs="http://svgjs.dev/svgjs" width="2000" height="388" viewBox="0 0 2000 388"><g transform="matrix(1,0,0,1,-1.2121212121212466,-0.8268624093619223)"><svg viewBox="0 0 396 77" data-background-color="#484d55" preserveAspectRatio="xMidYMid meet" height="388" width="2000" xmlns="http://www.w3.org/2000/svg" xmlns:xlink="http://www.w3.org/1999/xlink"><g id="tight-bounds" transform="matrix(1,0,0,1,0.2400000000000091,0.1640938286620326)"><svg viewBox="0 0 395.52 76.67181234267593" height="76.67181234267593" width="395.52"><g><svg viewBox="0 0 515.705046671392 99.96976274919068" height="76.67181234267593" width="395.52"><g><rect width="3.242091842850736" height="72.69870590661115" x="108.45580340746605" y="13.635528421289763" fill="#edd07e" opacity="1" stroke-width="0" stroke="transparent" fill-opacity="1" class="rect-r$-0" data-fill-palette-color="primary" rx="1%" id="r$-0" data-palette-color="#edd07e"></rect></g><g transform="matrix(1,0,0,1,120.18504667139202,13.816370973296252)"><svg viewBox="0 0 395.52 72.33702080259818" height="72.33702080259818" width="395.52"><g id="textblocktransform"><svg viewBox="0 0 395.52 72.33702080259818" height="72.33702080259818" width="395.52" id="textblock"><g><svg viewBox="0 0 395.52 35.950928603819214" height="35.950928603819214" width="395.52"><g transform="matrix(1,0,0,1,0,0)"><svg width="395.52" viewBox="3.61 -36.04 484.51 44.05" height="35.950928603819214" data-palette-color="#edd07e"><path d="M9.79-35.55L9.79-4.93 25.93-4.93 25.93 0 3.61 0 3.61-35.55 9.79-35.55ZM51.44-20.75L51.44-15.87 36.84-15.87 36.84-4.93 53.9-4.93 53.9 0 30.66 0 30.66-35.55 53.73-35.55 53.73-30.57 36.84-30.57 36.84-20.75 51.44-20.75ZM99.58-35.55L99.58 0 93.4 0 77.56-25.22 77.56 0 71.38 0 71.38-35.55 77.56-35.55 93.45-10.23 93.45-35.55 99.58-35.55ZM134.12-18.24L134.12-4.61Q132.19-2.1 128.77-0.81 125.36 0.49 121.01 0.49L121.01 0.49Q116.54 0.49 113.1-1.54 109.66-3.56 107.79-7.34 105.92-11.11 105.85-16.14L105.85-16.14 105.85-18.92Q105.85-26.98 109.71-31.51 113.56-36.04 120.47-36.04L120.47-36.04Q126.41-36.04 129.9-33.11 133.39-30.18 134.1-24.66L134.1-24.66 128.04-24.66Q127.02-31.08 120.6-31.08L120.6-31.08Q116.45-31.08 114.28-28.09 112.12-25.1 112.05-19.31L112.05-19.31 112.05-16.58Q112.05-10.82 114.48-7.63 116.91-4.44 121.23-4.44L121.23-4.44Q125.97-4.44 127.97-6.59L127.97-6.59 127.97-13.55 120.64-13.55 120.64-18.24 134.12-18.24ZM160.75-35.55L166.91-35.55 166.91-11.79Q166.91-6.13 163.28-2.82 159.66 0.49 153.63 0.49L153.63 0.49Q147.52 0.49 143.93-2.77 140.34-6.03 140.34-11.82L140.34-11.82 140.34-35.55 146.5-35.55 146.5-11.77Q146.5-8.2 148.3-6.32 150.11-4.44 153.63-4.44L153.63-4.44Q160.75-4.44 160.75-11.96L160.75-11.96 160.75-35.55ZM176.91-35.55L185.09-18.7 193.27-35.55 200.11-35.55 188.19-13.09 188.19 0 181.99 0 181.99-13.09 170.05-35.55 176.91-35.55ZM224.74-20.75L224.74-15.87 210.14-15.87 210.14-4.93 227.2-4.93 227.2 0 203.96 0 203.96-35.55 227.03-35.55 227.03-30.57 210.14-30.57 210.14-20.75 224.74-20.75ZM260.43-35.55L260.43 0 254.25 0 238.41-25.22 238.41 0 232.23 0 232.23-35.55 238.41-35.55 254.3-10.23 254.3-35.55 260.43-35.55ZM268 8.01L268 8.01 264.8 6.1Q266.21 3.88 266.74 2.23 267.26 0.59 267.29-1.12L267.29-1.12 267.29-5.74 272.63-5.74 272.61-1.46Q272.58 1.12 271.3 3.72 270.02 6.32 268 8.01ZM291.16-35.55L299.17-35.55 309.42-8.3 319.65-35.55 327.63-35.55 327.63 0 321.48 0 321.48-11.72 322.09-27.39 311.59 0 307.17 0 296.7-27.37 297.31-11.72 297.31 0 291.16 0 291.16-35.55ZM345.16 0L334.93 0 334.93-35.55 345.43-35.55Q350.14-35.55 353.79-33.45 357.44-31.35 359.44-27.49 361.44-23.63 361.44-18.65L361.44-18.65 361.44-16.87Q361.44-11.82 359.43-7.98 357.42-4.15 353.69-2.08 349.97 0 345.16 0L345.16 0ZM345.43-30.57L341.11-30.57 341.11-4.93 345.14-4.93Q349.99-4.93 352.59-7.97 355.19-11.01 355.24-16.7L355.24-16.7 355.24-18.68Q355.24-24.46 352.73-27.51 350.21-30.57 345.43-30.57L345.43-30.57ZM364.88 8.01L364.88 8.01 361.69 6.1Q363.1 3.88 363.63 2.23 364.15 0.59 364.18-1.12L364.18-1.12 364.18-5.74 369.52-5.74 369.5-1.46Q369.47 1.12 368.19 3.72 366.91 6.32 364.88 8.01ZM388.05-35.55L396.06-35.55 406.31-8.3 416.54-35.55 424.52-35.55 424.52 0 418.37 0 418.37-11.72 418.98-27.39 408.48 0 404.06 0 393.59-27.37 394.2-11.72 394.2 0 388.05 0 388.05-35.55ZM444.78 0L431.82 0 431.82-35.55 444-35.55Q450.03-35.55 453.18-33.13 456.33-30.71 456.33-25.93L456.33-25.93Q456.33-23.49 455.01-21.53 453.7-19.58 451.16-18.51L451.16-18.51Q454.04-17.72 455.61-15.56 457.19-13.4 457.19-10.38L457.19-10.38Q457.19-5.37 453.98-2.69 450.77 0 444.78 0L444.78 0ZM445.37-16.04L438-16.04 438-4.93 444.86-4.93Q447.76-4.93 449.4-6.37 451.03-7.81 451.03-10.38L451.03-10.38Q451.03-15.92 445.37-16.04L445.37-16.04ZM438-30.57L438-20.58 444.05-20.58Q446.93-20.58 448.56-21.89 450.18-23.19 450.18-25.59L450.18-25.59Q450.18-28.22 448.68-29.39 447.18-30.57 444-30.57L444-30.57 438-30.57ZM481.94-9.16L481.94-9.16Q481.94-11.5 480.29-12.77 478.64-14.04 474.35-15.33 470.05-16.63 467.51-18.21L467.51-18.21Q462.65-21.26 462.65-26.17L462.65-26.17Q462.65-30.47 466.16-33.25 469.66-36.04 475.25-36.04L475.25-36.04Q478.96-36.04 481.87-34.67 484.77-33.3 486.43-30.77 488.09-28.25 488.09-25.17L488.09-25.17 481.94-25.17Q481.94-27.95 480.19-29.53 478.45-31.1 475.2-31.1L475.2-31.1Q472.17-31.1 470.5-29.81 468.83-28.52 468.83-26.2L468.83-26.2Q468.83-24.24 470.64-22.94 472.44-21.63 476.59-20.4 480.74-19.17 483.26-17.59 485.77-16.02 486.94-13.98 488.12-11.94 488.12-9.2L488.12-9.2Q488.12-4.76 484.71-2.14 481.31 0.49 475.47 0.49L475.47 0.49Q471.61 0.49 468.38-0.94 465.14-2.37 463.35-4.88 461.55-7.4 461.55-10.74L461.55-10.74 467.73-10.74Q467.73-7.71 469.73-6.05 471.73-4.39 475.47-4.39L475.47-4.39Q478.69-4.39 480.32-5.7 481.94-7.01 481.94-9.16Z" opacity="1" transform="matrix(1,0,0,1,0,0)" fill="#edd07e" class="wordmark-text-0" data-fill-palette-color="primary" id="text-0"></path></svg></g></svg></g><g transform="matrix(1,0,0,1,0,44.43808002489444)"><svg viewBox="0 0 232.20979200000002 27.89894077770373" height="27.89894077770373" width="232.20979200000002"><g transform="matrix(1,0,0,1,0,0)"><svg width="232.20979200000002" viewBox="1.95 -38.01 402.92 48.41" height="27.89894077770373" data-palette-color="#edd07e"><path d="M14.6-15.84L14.6-15.84Q8.57-17.58 5.82-20.1 3.08-22.63 3.08-26.34L3.08-26.34Q3.08-30.54 6.43-33.29 9.79-36.04 15.16-36.04L15.16-36.04Q18.82-36.04 21.69-34.62 24.56-33.2 26.14-30.71 27.71-28.22 27.71-25.27L27.71-25.27 23-25.27Q23-28.49 20.95-30.33 18.9-32.18 15.16-32.18L15.16-32.18Q11.69-32.18 9.75-30.65 7.81-29.13 7.81-26.42L7.81-26.42Q7.81-24.24 9.66-22.74 11.5-21.24 15.93-20 20.36-18.75 22.86-17.25 25.37-15.75 26.57-13.75 27.78-11.74 27.78-9.03L27.78-9.03Q27.78-4.71 24.41-2.11 21.04 0.49 15.41 0.49L15.41 0.49Q11.74 0.49 8.57-0.92 5.4-2.32 3.67-4.76 1.95-7.2 1.95-10.3L1.95-10.3 6.67-10.3Q6.67-7.08 9.05-5.21 11.43-3.34 15.41-3.34L15.41-3.34Q19.12-3.34 21.09-4.86 23.07-6.37 23.07-8.98 23.07-11.6 21.24-13.02 19.41-14.45 14.6-15.84ZM31.88-13.13L31.88-13.45Q31.88-17.33 33.41-20.43 34.93-23.54 37.66-25.22 40.38-26.9 43.87-26.9L43.87-26.9Q49.27-26.9 52.6-23.17 55.93-19.43 55.93-13.23L55.93-13.23 55.93-12.92Q55.93-9.06 54.45-5.99 52.98-2.93 50.23-1.22 47.48 0.49 43.92 0.49L43.92 0.49Q38.55 0.49 35.21-3.25 31.88-6.98 31.88-13.13L31.88-13.13ZM36.42-12.92L36.42-12.92Q36.42-8.52 38.46-5.86 40.5-3.2 43.92-3.2L43.92-3.2Q47.36-3.2 49.39-5.9 51.41-8.59 51.41-13.45L51.41-13.45Q51.41-17.8 49.35-20.5 47.29-23.19 43.87-23.19L43.87-23.19Q40.52-23.19 38.47-20.53 36.42-17.87 36.42-12.92ZM68.33 0L63.81 0 63.81-22.92 59.64-22.92 59.64-26.42 63.81-26.42 63.81-29.13Q63.81-33.37 66.08-35.69 68.35-38.01 72.5-38.01L72.5-38.01Q74.07-38.01 75.61-37.6L75.61-37.6 75.36-33.94Q74.21-34.16 72.92-34.16L72.92-34.16Q70.72-34.16 69.53-32.87 68.33-31.59 68.33-29.2L68.33-29.2 68.33-26.42 73.97-26.42 73.97-22.92 68.33-22.92 68.33 0ZM80.56-32.81L85.08-32.81 85.08-26.42 90.01-26.42 90.01-22.92 85.08-22.92 85.08-6.54Q85.08-4.96 85.73-4.16 86.39-3.37 87.98-3.37L87.98-3.37Q88.76-3.37 90.13-3.66L90.13-3.66 90.13 0Q88.35 0.49 86.66 0.49L86.66 0.49Q83.64 0.49 82.1-1.34 80.56-3.17 80.56-6.54L80.56-6.54 80.56-22.92 75.75-22.92 75.75-26.42 80.56-26.42 80.56-32.81ZM112.39-26.42L118.67-6.23 123.74-26.42 128.26-26.42 120.57 0 116.91 0 110.49-20.02 104.24 0 100.58 0 92.91-26.42 97.4-26.42 102.6-6.64 108.75-26.42 112.39-26.42ZM153.89 0L149.16 0Q148.77-0.78 148.52-2.78L148.52-2.78Q145.37 0.49 141 0.49L141 0.49Q137.1 0.49 134.59-1.72 132.09-3.93 132.09-7.32L132.09-7.32Q132.09-11.45 135.23-13.73 138.37-16.02 144.05-16.02L144.05-16.02 148.45-16.02 148.45-18.09Q148.45-20.46 147.03-21.86 145.62-23.27 142.86-23.27L142.86-23.27Q140.44-23.27 138.81-22.05 137.17-20.83 137.17-19.09L137.17-19.09 132.63-19.09Q132.63-21.07 134.03-22.91 135.44-24.76 137.84-25.83 140.25-26.9 143.13-26.9L143.13-26.9Q147.69-26.9 150.28-24.62 152.87-22.34 152.97-18.33L152.97-18.33 152.97-6.18Q152.97-2.54 153.89-0.39L153.89-0.39 153.89 0ZM141.66-3.44L141.66-3.44Q143.79-3.44 145.69-4.54 147.59-5.64 148.45-7.4L148.45-7.4 148.45-12.82 144.91-12.82Q136.61-12.82 136.61-7.96L136.61-7.96Q136.61-5.83 138.02-4.64 139.44-3.44 141.66-3.44ZM172.81-26.56L172.81-22.36Q171.79-22.53 170.59-22.53L170.59-22.53Q166.15-22.53 164.56-18.75L164.56-18.75 164.56 0 160.04 0 160.04-26.42 164.44-26.42 164.51-23.36Q166.73-26.9 170.81-26.9L170.81-26.9Q172.13-26.9 172.81-26.56L172.81-26.56ZM187.46 0.49L187.46 0.49Q182.09 0.49 178.72-3.04 175.35-6.57 175.35-12.48L175.35-12.48 175.35-13.31Q175.35-17.24 176.85-20.32 178.35-23.41 181.05-25.16 183.75-26.9 186.9-26.9L186.9-26.9Q192.05-26.9 194.9-23.51 197.76-20.12 197.76-13.79L197.76-13.79 197.76-11.91 179.87-11.91Q179.96-8.01 182.15-5.6 184.33-3.2 187.7-3.2L187.7-3.2Q190.09-3.2 191.75-4.17 193.42-5.15 194.66-6.76L194.66-6.76 197.42-4.61Q194.1 0.49 187.46 0.49ZM186.9-23.19L186.9-23.19Q184.16-23.19 182.31-21.2 180.45-19.21 180.01-15.63L180.01-15.63 193.24-15.63 193.24-15.97Q193.05-19.41 191.39-21.3 189.73-23.19 186.9-23.19ZM236.16-20.26L236.16-16.43 220.75-16.43 220.75-3.83 238.65-3.83 238.65 0 216.07 0 216.07-35.55 238.41-35.55 238.41-31.69 220.75-31.69 220.75-20.26 236.16-20.26ZM243.77-26.42L248.05-26.42 248.19-23.1Q251.22-26.9 256.1-26.9L256.1-26.9Q264.48-26.9 264.55-17.46L264.55-17.46 264.55 0 260.03 0 260.03-17.48Q260.01-20.34 258.73-21.7 257.45-23.07 254.74-23.07L254.74-23.07Q252.54-23.07 250.88-21.9 249.22-20.73 248.29-18.82L248.29-18.82 248.29 0 243.77 0 243.77-26.42ZM270.29-13.43L270.29-13.43Q270.29-19.6 273.14-23.25 276-26.9 280.71-26.9L280.71-26.9Q285.54-26.9 288.25-23.49L288.25-23.49 288.47-26.42 292.6-26.42 292.6-0.63Q292.6 4.49 289.56 7.45 286.52 10.4 281.39 10.4L281.39 10.4Q278.54 10.4 275.8 9.18 273.07 7.96 271.63 5.83L271.63 5.83 273.97 3.13Q276.88 6.71 281.08 6.71L281.08 6.71Q284.37 6.71 286.22 4.86 288.06 3 288.06-0.37L288.06-0.37 288.06-2.64Q285.35 0.49 280.66 0.49L280.66 0.49Q276.02 0.49 273.15-3.25 270.29-6.98 270.29-13.43ZM274.83-12.92L274.83-12.92Q274.83-8.45 276.66-5.9 278.49-3.34 281.78-3.34L281.78-3.34Q286.06-3.34 288.06-7.23L288.06-7.23 288.06-19.29Q285.98-23.07 281.83-23.07L281.83-23.07Q278.54-23.07 276.68-20.51 274.83-17.94 274.83-12.92ZM304.32-26.42L304.32 0 299.8 0 299.8-26.42 304.32-26.42ZM299.43-33.42L299.43-33.42Q299.43-34.52 300.1-35.28 300.78-36.04 302.09-36.04 303.41-36.04 304.1-35.28 304.78-34.52 304.78-33.42 304.78-32.32 304.1-31.59 303.41-30.86 302.09-30.86 300.78-30.86 300.1-31.59 299.43-32.32 299.43-33.42ZM311.54-26.42L315.81-26.42 315.96-23.1Q318.99-26.9 323.87-26.9L323.87-26.9Q332.24-26.9 332.32-17.46L332.32-17.46 332.32 0 327.8 0 327.8-17.48Q327.78-20.34 326.49-21.7 325.21-23.07 322.5-23.07L322.5-23.07Q320.3-23.07 318.64-21.9 316.98-20.73 316.06-18.82L316.06-18.82 316.06 0 311.54 0 311.54-26.42ZM350.09 0.49L350.09 0.49Q344.72 0.49 341.35-3.04 337.98-6.57 337.98-12.48L337.98-12.48 337.98-13.31Q337.98-17.24 339.48-20.32 340.98-23.41 343.68-25.16 346.38-26.9 349.53-26.9L349.53-26.9Q354.68-26.9 357.53-23.51 360.39-20.12 360.39-13.79L360.39-13.79 360.39-11.91 342.49-11.91Q342.59-8.01 344.78-5.6 346.96-3.2 350.33-3.2L350.33-3.2Q352.72-3.2 354.38-4.17 356.04-5.15 357.29-6.76L357.29-6.76 360.05-4.61Q356.73 0.49 350.09 0.49ZM349.53-23.19L349.53-23.19Q346.79-23.19 344.94-21.2 343.08-19.21 342.64-15.63L342.64-15.63 355.87-15.63 355.87-15.97Q355.68-19.41 354.02-21.3 352.36-23.19 349.53-23.19ZM376.57 0.49L376.57 0.49Q371.2 0.49 367.83-3.04 364.46-6.57 364.46-12.48L364.46-12.48 364.46-13.31Q364.46-17.24 365.97-20.32 367.47-23.41 370.17-25.16 372.86-26.9 376.01-26.9L376.01-26.9Q381.16-26.9 384.02-23.51 386.88-20.12 386.88-13.79L386.88-13.79 386.88-11.91 368.98-11.91Q369.08-8.01 371.26-5.6 373.45-3.2 376.82-3.2L376.82-3.2Q379.21-3.2 380.87-4.17 382.53-5.15 383.78-6.76L383.78-6.76 386.53-4.61Q383.21 0.49 376.57 0.49ZM376.01-23.19L376.01-23.19Q373.28-23.19 371.42-21.2 369.57-19.21 369.13-15.63L369.13-15.63 382.36-15.63 382.36-15.97Q382.16-19.41 380.5-21.3 378.84-23.19 376.01-23.19ZM404.87-26.56L404.87-22.36Q403.84-22.53 402.65-22.53L402.65-22.53Q398.2-22.53 396.62-18.75L396.62-18.75 396.62 0 392.1 0 392.1-26.42 396.49-26.42 396.57-23.36Q398.79-26.9 402.87-26.9L402.87-26.9Q404.18-26.9 404.87-26.56L404.87-26.56Z" opacity="1" transform="matrix(1,0,0,1,0,0)" fill="#edd07e" class="slogan-text-1" data-fill-palette-color="secondary" id="text-1"></path></svg></g></svg></g></svg></g></svg></g><g><svg viewBox="0 0 99.96865198639082 99.96976274919068" height="99.96976274919068" width="99.96865198639082"><g><svg xmlns="http://www.w3.org/2000/svg" xmlns:xlink="http://www.w3.org/1999/xlink" version="1.1" x="0" y="0" viewBox="5 4.999 90 90.001" enable-background="new 0 0 100 100" xml:space="preserve" height="99.96976274919068" width="99.96865198639082" class="icon-icon-0" data-fill-palette-color="accent" id="icon-0"></svg></g></svg></g></svg></g><defs></defs><mask id="34b0e2e9-e8c6-4c75-b4ee-a78fc9da4b64"><g id="SvgjsG2557"><svg viewBox="0 0 395.52 76.67181234267593" height="76.67181234267593" width="395.52"><g><svg viewBox="0 0 515.705046671392 99.96976274919068" height="76.67181234267593" width="395.52"><g></g><g transform="matrix(1,0,0,1,120.18504667139202,13.816370973296252)"><svg viewBox="0 0 395.52 72.33702080259818" height="72.33702080259818" width="395.52"><g id="SvgjsG2555"><svg viewBox="0 0 395.52 72.33702080259818" height="72.33702080259818" width="395.52" id="SvgjsSvg2554"><g><svg viewBox="0 0 395.52 35.950928603819214" height="35.950928603819214" width="395.52"><g transform="matrix(1,0,0,1,0,0)"><svg width="395.52" viewBox="3.61 -36.04 484.51 44.05" height="35.950928603819214" data-palette-color="#edd07e"></svg></g></svg></g><g transform="matrix(1,0,0,1,0,44.43808002489444)"><svg viewBox="0 0 232.20979200000002 27.89894077770373" height="27.89894077770373" width="232.20979200000002"><g transform="matrix(1,0,0,1,0,0)"><svg width="232.20979200000002" viewBox="1.95 -38.01 402.92 48.41" height="27.89894077770373" data-palette-color="#edd07e"></svg></g></svg></g></svg></g></svg></g><g><svg viewBox="0 0 99.96865198639082 99.96976274919068" height="99.96976274919068" width="99.96865198639082"><g><svg xmlns="http://www.w3.org/2000/svg" xmlns:xlink="http://www.w3.org/1999/xlink" version="1.1" x="0" y="0" viewBox="5 4.999 90 90.001" enable-background="new 0 0 100 100" xml:space="preserve" height="99.96976274919068" width="99.96865198639082" class="icon-icon-0" data-fill-palette-color="accent" id="SvgjsSvg2551"><path d="M78.604 73.273L64.156 37.724 50.214 5.191C50.177 5.105 50.094 5.05 50 5.05c-0.093 0-0.176 0.055-0.213 0.141L35.843 37.728 21.397 73.273c-0.011 0.029-0.017 0.059-0.017 0.09v4.143c0 0.059 0.021 0.115 0.06 0.156l2.513 2.764c0.044 0.049 0.107 0.078 0.174 0.076 0.066 0 0.129-0.029 0.173-0.08l13.393-15.357 0.651 2.822c0.01 0.041 0.029 0.076 0.057 0.107l6.94 7.434L41.49 86.98c-0.01 0.027-0.014 0.059-0.012 0.088l0.503 7.662c0.007 0.104 0.08 0.189 0.181 0.211 0.101 0.023 0.204-0.023 0.254-0.113L50 81.127l7.586 13.701c0.041 0.076 0.119 0.119 0.202 0.119 0.017 0 0.034-0.002 0.051-0.006 0.101-0.021 0.175-0.107 0.182-0.211l0.502-7.662c0.002-0.029-0.002-0.061-0.011-0.088l-3.851-11.553 6.939-7.434c0.027-0.031 0.048-0.066 0.057-0.107l0.652-2.822 13.392 15.357c0.044 0.051 0.107 0.08 0.173 0.08 0.001 0 0.001 0 0.002 0 0.066 0 0.128-0.027 0.172-0.076l2.513-2.764c0.038-0.041 0.06-0.098 0.06-0.156v-4.143C78.62 73.332 78.615 73.303 78.604 73.273z" fill="white"></path></svg></g></svg></g></svg></g><defs><mask></mask></defs></svg></g></mask><linearGradient x1="0.054" x2="0.941" y1="0.5" y2="0.5" id="611439d3-0091-48f4-9c51-6b9ffa3833d6"><stop stop-color="#9c7945" offset="0"></stop><stop stop-color="#faf3aa" offset="0.498"></stop><stop stop-color="#9c7945" offset="1"></stop></linearGradient><rect width="395.52" height="76.67181234267593" fill="url(#611439d3-0091-48f4-9c51-6b9ffa3833d6)" mask="url(#34b0e2e9-e8c6-4c75-b4ee-a78fc9da4b64)" data-fill-palette-color="accent"></rect></svg><rect width="395.52" height="76.67181234267593" fill="none" stroke="none" visibility="hidden"></rect></g></svg></g></svg>