<?xml version="1.0" encoding="UTF-8" standalone="no"?>
<!-- Created with Inkscape (http://www.inkscape.org/) -->

<svg
   xmlns:dc="http://purl.org/dc/elements/1.1/"
   xmlns:cc="http://creativecommons.org/ns#"
   xmlns:rdf="http://www.w3.org/1999/02/22-rdf-syntax-ns#"
   xmlns:svg="http://www.w3.org/2000/svg"
   xmlns="http://www.w3.org/2000/svg"
   xmlns:sodipodi="http://sodipodi.sourceforge.net/DTD/sodipodi-0.dtd"
   xmlns:inkscape="http://www.inkscape.org/namespaces/inkscape"
   width="1000"
   height="155.21422"
   viewBox="0 0 264.58333 41.067095"
   version="1.1"
   id="svg8"
   inkscape:version="0.92.4 (5da689c313, 2019-01-14)"
   sodipodi:docname="A.svg">
  <defs
     id="defs2">
    <clipPath
       clipPathUnits="userSpaceOnUse"
       id="clipPath319">
      <path
         d="M 153,438.046 H 288 V 459 H 153 Z"
         id="path317"
         inkscape:connector-curvature="0" />
    </clipPath>
  </defs>
  <sodipodi:namedview
     id="base"
     pagecolor="#ffffff"
     bordercolor="#666666"
     borderopacity="1.0"
     inkscape:pageopacity="0.82352941"
     inkscape:pageshadow="2"
     inkscape:zoom="1.4"
     inkscape:cx="508.27883"
     inkscape:cy="5.9830024"
     inkscape:document-units="px"
     inkscape:current-layer="layer1"
     showgrid="false"
     units="px"
     inkscape:window-width="1920"
     inkscape:window-height="1017"
     inkscape:window-x="1912"
     inkscape:window-y="-8"
     inkscape:window-maximized="1"
     inkscape:pagecheckerboard="true"
     fit-margin-top="0"
     fit-margin-left="0"
     fit-margin-right="0"
     fit-margin-bottom="0" />
  <metadata
     id="metadata5">
    <rdf:RDF>
      <cc:Work
         rdf:about="">
        <dc:format>image/svg+xml</dc:format>
        <dc:type
           rdf:resource="http://purl.org/dc/dcmitype/StillImage" />
        <dc:title></dc:title>
      </cc:Work>
    </rdf:RDF>
  </metadata>
  <g
     inkscape:label="Layer 1"
     inkscape:groupmode="layer"
     id="layer1"
     transform="translate(64.977642,-267.88694)">
    <g
       id="g313"
       transform="matrix(1.9598777,0,0,-1.9598777,-364.83893,1167.4708)">
      <g
         id="g315"
         clip-path="url(#clipPath319)">
        <g
           id="g321"
           transform="translate(262.0721,458.3076)">
          <path
             d="M 0,0 H 3.682 V -19.734 H 1.177 V -3.25 c -0.04,0.011 -0.081,0.022 -0.121,0.033 -2.592,-5.505 -5.184,-11.01 -7.781,-16.525 h -1.554 c -2.587,5.496 -5.187,11.018 -7.786,16.539 -0.035,-0.007 -0.069,-0.014 -0.104,-0.021 v -16.508 h -2.53 v 19.72 h 3.795 c 2.448,-5.142 4.906,-10.307 7.417,-15.581 C -4.957,-10.323 -2.476,-5.157 0,0"
             style="fill:#ec2427;fill-opacity:1;fill-rule:nonzero;stroke:none"
             id="path323"
             inkscape:connector-curvature="0" />
        </g>
        <g
           id="g325"
           transform="translate(271.5804,456.1471)">
          <path
             d="m 0,0 v -15.459 h 0.454 c 1.541,0 3.084,-0.047 4.623,0.016 1.018,0.041 2.051,0.148 3.04,0.385 2.336,0.559 4.141,1.842 5.024,4.163 0.684,1.798 0.729,3.65 0.267,5.514 C 12.913,-3.38 11.73,-1.93 9.889,-1.009 8.486,-0.306 6.978,-0.032 5.429,0.006 3.709,0.048 1.988,0.028 0.267,0.032 0.181,0.033 0.095,0.012 0,0 M -2.55,-17.6 V 2.174 h 0.426 c 2.621,0 5.243,0.04 7.863,-0.01 2.981,-0.057 5.686,-0.934 7.903,-3.006 1.548,-1.446 2.413,-3.261 2.673,-5.359 0.231,-1.875 0.106,-3.717 -0.647,-5.469 -1.148,-2.674 -3.248,-4.294 -5.932,-5.238 -1.367,-0.48 -2.781,-0.693 -4.229,-0.692 -2.518,0.002 -5.037,0 -7.555,0 H -2.55"
             style="fill:#ec2427;fill-opacity:1;fill-rule:nonzero;stroke:none"
             id="path327"
             inkscape:connector-curvature="0" />
        </g>
        <g
           id="g329"
           transform="translate(193.8861,442.9655)">
          <path
             d="M 0,0 C 0.646,-0.495 1.266,-0.969 1.911,-1.464 1.332,-2.178 0.685,-2.772 -0.059,-3.259 -1.75,-4.366 -3.635,-4.82 -5.63,-4.905 c -2.539,-0.108 -4.936,0.382 -7.085,1.781 -2.763,1.798 -4.321,4.351 -4.624,7.645 -0.519,5.62 3.354,10.317 8.975,11.167 2.438,0.368 4.812,0.164 7.069,-0.898 1.01,-0.476 1.891,-1.131 2.653,-2.031 -0.746,-0.494 -1.479,-0.978 -2.232,-1.476 -0.796,0.957 -1.795,1.609 -2.962,2.002 -4.666,1.571 -9.763,-1.45 -10.648,-6.305 -0.719,-3.949 1.266,-7.683 4.889,-9.124 2.977,-1.183 6.997,-0.77 9.454,2.011 C -0.108,-0.096 -0.068,-0.064 0,0"
             style="fill:#000000;fill-opacity:1;fill-rule:nonzero;stroke:none"
             id="path331"
             inkscape:connector-curvature="0" />
        </g>
        <g
           id="g333"
           transform="translate(237.7913,458.317)">
          <path
             d="M 0,0 H 3.091 C 2.746,-0.485 2.433,-0.93 2.114,-1.371 c -2.289,-3.175 -4.577,-6.35 -6.873,-9.521 -0.181,-0.25 -0.27,-0.494 -0.269,-0.809 0.012,-2.529 0.007,-5.058 0.007,-7.588 v -0.47 h -2.558 v 0.439 c 0,2.541 -0.005,5.083 0.006,7.625 0.001,0.301 -0.083,0.535 -0.257,0.775 -2.55,3.525 -5.093,7.054 -7.637,10.584 -0.066,0.091 -0.124,0.188 -0.212,0.321 h 3.264 c 2.009,-2.934 4.043,-5.906 6.11,-8.924 C -4.182,-5.929 -2.086,-2.957 0,0"
             style="fill:#000000;fill-opacity:1;fill-rule:nonzero;stroke:none"
             id="path335"
             inkscape:connector-curvature="0" />
        </g>
        <g
           id="g337"
           transform="translate(221.2722,458.3005)">
          <path
             d="m 0,0 v -2.133 h -7.155 v -17.598 h -2.592 v 17.589 h -7.181 V 0 Z"
             style="fill:#000000;fill-opacity:1;fill-rule:nonzero;stroke:none"
             id="path339"
             inkscape:connector-curvature="0" />
        </g>
        <path
           d="m 165.718,446.272 h 8.1 v -8.088 h -8.1 z"
           style="fill:#ec2427;fill-opacity:1;fill-rule:nonzero;stroke:none"
           id="path341"
           inkscape:connector-curvature="0" />
        <path
           d="m 161.098,438.181 h -8.093 v 8.094 h 8.093 z"
           style="fill:#ec2427;fill-opacity:1;fill-rule:nonzero;stroke:none"
           id="path343"
           inkscape:connector-curvature="0" />
        <path
           d="m 165.732,459 h 8.086 v -8.101 h -8.086 z"
           style="fill:#ec2427;fill-opacity:1;fill-rule:nonzero;stroke:none"
           id="path345"
           inkscape:connector-curvature="0" />
        <path
           d="M 161.09,450.894 H 153 v 8.101 h 8.09 z"
           style="fill:#ec2427;fill-opacity:1;fill-rule:nonzero;stroke:none"
           id="path347"
           inkscape:connector-curvature="0" />
        <path
           d="m 199.415,458.32 h 2.555 v -19.759 h -2.555 z"
           style="fill:#000000;fill-opacity:1;fill-rule:nonzero;stroke:none"
           id="path349"
           inkscape:connector-curvature="0" />
      </g>
    </g>
  </g>
</svg>
