<svg xmlns="http://www.w3.org/2000/svg" version="1.1" xmlns:xlink="http://www.w3.org/1999/xlink" xmlns:svgjs="http://svgjs.dev/svgjs" width="2000" height="4165" viewBox="0 0 2000 4165"><g transform="matrix(1,0,0,1,1.4545725745997515,1.2808890310411698)"><svg viewBox="0 0 157 327" data-background-color="#001f3f" preserveAspectRatio="xMidYMid meet" height="4165" width="2000" xmlns="http://www.w3.org/2000/svg" xmlns:xlink="http://www.w3.org/1999/xlink"><g id="tight-bounds" transform="matrix(1,0,0,1,-0.11418394710608482,-0.1005643969148764)"><svg viewBox="0 0 157.22836789421214 327.2" height="327.2" width="157.22836789421214"><g><svg viewBox="0 0 463.17475794318483 963.8895501413454" height="327.2" width="157.22836789421214"><g transform="matrix(1,0,0,1,44.218949382925416,636.6895501413453)"><svg viewBox="0 0 374.736859177334 327.2" height="327.2" width="374.736859177334"><g id="textblocktransform"><svg viewBox="0 0 374.736859177334 327.2" height="327.2" width="374.736859177334" id="textblock"><g><svg viewBox="0 0 374.736859177334 327.2" height="327.2" width="374.736859177334"><g transform="matrix(1,0,0,1,0,0)"><svg width="374.736859177334" viewBox="12.494901869661081 -4.839153381718787 31.27956300476856 27.31160351628438" height="327.2" data-palette-color="#f2dea4"><path d="M12.553 18.024v0l4.392-20.29c0.099-0.456 1.249-0.446 3.451 0.031 2.209 0.478 3.264 0.945 3.165 1.401v0l-3.458 15.98 5.023 1.087c0.391 0.085 0.554 0.655 0.489 1.712v0c-0.043 0.516-0.122 1.034-0.234 1.556-0.113 0.521-0.261 1.049-0.445 1.582v0c-0.402 1.004-0.798 1.464-1.189 1.38v0l-10.047-2.175c-0.482-0.104-0.821-0.382-1.016-0.834-0.196-0.452-0.239-0.928-0.131-1.43zM38.602-4.552l5.164 21.385c0.11 0.454-0.853 0.926-2.888 1.417-2.028 0.49-3.169 0.594-3.422 0.312v0l-7.87-8.818 2.436 10.089c0.094 0.389-0.857 0.824-2.853 1.307-2.002 0.484-3.051 0.531-3.144 0.142v0l-5.242-21.706c-0.078-0.324 0.738-0.693 2.449-1.106v0c0.667-0.161 1.466-0.292 2.394-0.393 0.924-0.093 1.522-0.001 1.795 0.276v0l7.604 8.74-2.46-10.188c-0.1-0.415 0.857-0.865 2.873-1.352 2.009-0.485 3.063-0.52 3.164-0.105z" opacity="1" transform="matrix(1,0,0,1,0,0)" fill="#f2dea4" class="wordmark-text-0" data-fill-palette-color="primary" id="text-0"></path></svg></g></svg></g></svg></g></svg></g><g><svg viewBox="0 0 463.17475794318483 603.0010999637688" height="603.0010999637688" width="463.17475794318483"><g><svg xmlns="http://www.w3.org/2000/svg" xmlns:xlink="http://www.w3.org/1999/xlink" version="1.1" x="0" y="0" viewBox="23.5 15.5 53.000000000000014 69" style="enable-background:new 0 0 100 100;" xml:space="preserve" height="603.0010999637688" width="463.17475794318483" class="icon-icon-0" data-fill-palette-color="accent" id="icon-0"><g fill="#f2dea4" data-fill-palette-color="accent"><path class="" d="M35.2 64v9c0 0.8 0.7 1.5 1.5 1.5h26.6c0.8 0 1.5-0.7 1.5-1.5v-9c7.3-4.9 11.7-13.1 11.7-22 0-14.6-11.9-26.5-26.5-26.5S23.5 27.4 23.5 42C23.5 50.9 27.9 59 35.2 64zM50 18.5C63 18.5 73.5 29 73.5 42c0 8.1-4.1 15.5-11 19.9-0.4 0.3-0.7 0.8-0.7 1.3v8.3H38.2v-8.3c0-0.5-0.3-1-0.7-1.3-6.9-4.3-11-11.8-11-19.9C26.5 29 37 18.5 50 18.5z" fill="#f2dea4" data-fill-palette-color="accent"></path><path class="" d="M40.8 48.3c0.6 0.8 1.9 0.8 2.5 0l4.1-6.1 4.1 6.1c0.3 0.4 0.7 0.7 1.2 0.7s1-0.3 1.2-0.7l4.1-6.1 4.1 6.1c0.3 0.4 0.8 0.7 1.2 0.7 0.3 0 0.6-0.1 0.8-0.3 0.7-0.5 0.9-1.4 0.4-2.1l-5.3-8c-0.6-0.8-1.9-0.8-2.5 0l-4.1 6.1-4.1-6.1c-0.6-0.8-1.9-0.8-2.5 0L42 44.8l-4.1-6.1c-0.5-0.7-1.4-0.9-2.1-0.4-0.7 0.5-0.9 1.4-0.4 2.1L40.8 48.3z" fill="#f2dea4" data-fill-palette-color="accent"></path><path class="" d="M60.3 76.5H39.7c-0.8 0-1.5 0.7-1.5 1.5s0.7 1.5 1.5 1.5h20.6c0.8 0 1.5-0.7 1.5-1.5S61.1 76.5 60.3 76.5z" fill="#f2dea4" data-fill-palette-color="accent"></path><path class="" d="M60.3 81.5H39.7c-0.8 0-1.5 0.7-1.5 1.5s0.7 1.5 1.5 1.5h20.6c0.8 0 1.5-0.7 1.5-1.5S61.1 81.5 60.3 81.5z" fill="#f2dea4" data-fill-palette-color="accent"></path></g></svg></g></svg></g><g></g></svg></g><defs></defs></svg><rect width="157.22836789421214" height="327.2" fill="none" stroke="none" visibility="hidden"></rect></g></svg></g></svg>