<?xml version="1.0" encoding="utf-8"?>
<!-- Designed by Vexels.com - 2020 All Rights Reserved - https://vexels.com/terms-and-conditions/  -->
<svg version="1.1" id="Layer_1" xmlns="http://www.w3.org/2000/svg" xmlns:xlink="http://www.w3.org/1999/xlink" x="0px" y="0px"
	 viewBox="0 0 1200 1200" enable-background="new 0 0 1200 1200" xml:space="preserve">
<g>
	<path fill="none" d="M570.778,115.839c-2.568-0.042-5.133-0.098-7.71-0.098c-259.249,0-470.166,210.914-470.166,470.163
		s210.917,470.163,470.166,470.163c2.861,0,5.708-0.057,8.556-0.109c16.315-11.159,69.786-50.208,122.543-116.095
		c19.82-24.753,37.295-50.329,52.469-76.665l-55.027-142.151c-10.141-26.196,15.214-52.178,41.65-42.679l74.523,26.776
		c8.303-38.571,12.464-78.345,12.435-119.224C820.035,323.423,607.722,144.899,570.778,115.839z"/>
	<path fill="none" d="M644.021,122.738c23.867,22.687,53.204,53.467,82.676,91.64c89.161,115.481,136.335,243.947,136.421,371.511
		c0.033,48.117-5.555,92.728-14.932,133.77l146.482,52.63c24.788-57.18,38.563-120.2,38.563-186.385
		C1033.23,354.255,864.827,161.219,644.021,122.738z"/>
	<path fill="#2E2E3A" d="M976.816,282.886c-1.016-1.896-2.293-3.601-3.784-5.079C882.837,158.112,741.534,78.993,581.835,73.219
		c-2.093-0.387-4.216-0.457-6.307-0.221c-0.841,0.095-1.672,0.247-2.495,0.445c0.823-0.192,1.654-0.35,2.495-0.445
		c-4.142-0.099-8.294-0.158-12.46-0.158c-6.249,0-12.462,0.152-18.657,0.375c-2.994-0.518-6.072-0.4-9.058,0.38
		c-154.919,8.287-291.787,85.624-380.356,201.704c-1.581,1.52-2.929,3.296-3.995,5.277C87.575,365.95,50,471.618,50,585.904
		c0,273.537,215.175,497.747,485.15,512.296c1.848,0.504,3.733,0.771,5.611,0.771c1.256,0,2.497-0.154,3.726-0.376
		c6.171,0.221,12.358,0.372,18.581,0.372c4.117,0,8.221-0.06,12.316-0.156c-0.833-0.1-1.658-0.256-2.472-0.452
		c0.814,0.199,1.639,0.352,2.472,0.452c0.849,0.102,1.704,0.16,2.561,0.16c1.259,0,2.518-0.154,3.772-0.379
		c83.614-3.004,162.183-26.104,231.028-64.618l-15.64-40.404c-44.661,25.739-93.935,44.319-146.237,54.24
		c22.569-20.176,49.105-46.732,75.725-79.805c12.894-16.02,26.295-34.286,39.447-54.682l-18.396-47.521l-1.009-2.606l-16.322-42.163
		c-48.462-4.405-97.119-6.774-145.795-7.207V607.354h235.278c-1.188,33.373-5.171,65.996-12.015,97.788l40.405,14.517
		c7.965-34.864,13.156-72.33,14.531-112.305h167.806c0.742,0,1.474-0.038,2.197-0.111c-2.627,58.394-15.943,114.047-38.052,165.046
		l40.464,14.539c26.378-61.739,41-129.654,41-200.924C1076.131,472.638,1039.219,367.848,976.816,282.886z M572.897,73.48
		c-0.8,0.198-1.592,0.437-2.369,0.72l0,0C571.306,73.916,572.095,73.672,572.897,73.48z M93.215,602.207
		c3.747,3.203,8.603,5.147,13.92,5.147h157.781c2.88,87.018,23.354,162.073,50.574,224.463
		c-45.793,6.57-91.297,14.959-136.375,25.145C127.775,784.456,96.457,696.836,93.215,602.207z M179.105,314.858
		c46.798,10.564,94.056,19.192,141.61,25.886c-29.507,63.537-52.302,139.023-55.703,223.709H107.135
		c-5.317,0-10.172,1.944-13.92,5.147C96.457,474.977,127.772,387.362,179.105,314.858z M541.617,121.257v193.742
		c-51.533-0.806-103.023-3.909-154.258-9.284c14.039-24.095,28.603-45.634,42.502-64.338
		C474.964,180.68,520.556,139.089,541.617,121.257z M541.617,357.901v206.552H307.948c3.631-83.087,27.536-156.823,57.553-217.954
		C423.948,353.21,482.755,357.003,541.617,357.901z M307.839,607.354h233.778v206.639c-60.713,0.918-121.37,4.925-181.633,12.012
		C331.634,764.955,310.832,692.027,307.839,607.354z M541.617,856.881v194.947c-27.623-20.547-102.859-82.478-160.684-185.02
		C434.286,861.03,487.928,857.713,541.617,856.881z M475.121,124.025c-22.879,22.599-50.806,53.03-78.858,90.637
		c-18.069,24.224-37.175,52.939-55.074,85.595c-44.503-5.882-88.753-13.519-132.613-22.866
		C276.489,199.459,369.621,144.071,475.121,124.025z M208.569,894.409c41.816-8.911,83.988-16.243,126.396-21.992
		c19.663,37.45,41.175,69.307,61.395,95.308c25.271,32.497,50.468,58.709,72.037,78.765
		C365.657,1025.403,275.039,970.688,208.569,894.409z M570.496,1097.621c0.775,0.285,1.565,0.527,2.365,0.724
		C572.06,1098.151,571.271,1097.906,570.496,1097.621z M745.232,865.579c-14.849,25.495-31.845,50.28-51.065,74.284
		c-42.837,53.498-86.142,89.3-109.648,106.847V856.771C638.196,857.26,691.851,860.139,745.232,865.579z M919.308,279.442
		c-44.494,9.217-89.376,16.689-134.509,22.34c-16.779-29.782-36.163-58.988-58.103-87.404
		c-29.472-38.173-58.809-68.953-82.676-91.64C753.318,141.786,849.759,198.718,919.308,279.442z M584.518,127.092
		c32.244,27.313,99.111,89.938,153.43,179.897c-50.975,4.976-102.191,7.686-153.43,8.145V127.092z M584.518,564.453V358.012
		c58.834-0.514,117.64-3.927,176.107-10.253c31.669,62.282,55.421,135.21,59.075,216.694H584.518z M1030.522,564.453H862.638
		c-3.138-74.957-22.431-149.951-56.826-222.18c47.929-6.437,95.567-14.839,142.743-25.208
		c49.518,70.781,80.077,155.754,84.194,247.504C1032.017,564.494,1031.275,564.453,1030.522,564.453z"/>
	<polygon fill="#2E2E3A" points="1150,884.234 756.734,742.941 905.092,1126.177 959.125,1010.349 1075.936,1127.16 
		1149.501,1053.595 1032.912,937.006 	"/>
</g>
</svg>
